# xmcd CD database file
#
# Track frame offsets:
#	150
#	18982
#	36608
#	57653
#	76574
#	94901
#	108466
#	126558
#	154296
#	174346
#	198480
#	216442
#
# Disc length: 3073 seconds
#
# Revision: 0
# Processed by: cddbd v1.5.2PL0 Copyright (c) Steve Scherf et al.
# Submitted via: CDex 1.51
#
DISCID=ad0bff0c
DTITLE=Mirja Mäkelä Trio - Runoisia
DYEAR=2008
DGENRE=Jazz
TTITLE0=The Time Passes Even Without Singing
TTITLE1=You Spread the Map
TTITLE2=I Didn't Come Here to Stay
TTITLE3=Brothers
TTITLE4=Foolish Stuff
TTITLE5=The Young Girl Has A Red Scarf
TTITLE6=When You Put Down the Pen and the Paper
TTITLE7=My Strained Self
TTITLE8=Bright
TTITLE9=Hallnas
TTITLE10=A Poem
TTITLE11=Somewhere
EXTD=YEAR: 2008
EXTT0=
EXTT1=
EXTT2=
EXTT3=
EXTT4=
EXTT5=
EXTT6=
EXTT7=
EXTT8=
EXTT9=
EXTT10=
EXTT11=
PLAYORDER=
